<svg viewBox="0 0 141.7 60.6" xmlns="http://www.w3.org/2000/svg"><path d="m117.5 54.6h-13.1l-6.6-10.3-5.9-9.3 5.9-8.5 5.5-7.8h21.8l6.9 7.8 7.5 8.5-4.3 9.3-4.7 10.3z"/><path d="m80.4 35.1h-11.9l-4.4-8.5-4.1-7.8 6.8-7.2 6.2-6.6h20.2l5 6.6 5.5 7.2-5.5 7.8-5.9 8.5z"/><path d="m119.8 49.6h-13.1l-6.6-10.3-5.9-9.3 5.9-8.5 5.4-7.8h21.9l6.8 7.8 7.5 8.5-4.2 9.3-4.7 10.3z" fill="#364f21"/><path d="m82.3 30.2h-11.9l-4.5-8.6-4-7.8 6.7-7.2 6.3-6.6h20.1l5.1 6.6 5.4 7.2-5.4 7.8-5.9 8.6z" fill="#80ba27"/><path d="m95.1 19.3-4.2 5.7h-16.3l-3.2-5.7-3-5.5 4.6-5.1 4.4-4.8h14.5l3.5 4.8-4.9 2.1-2-2.8h-8.5l-2.6 2.8-2.5 3 1.8 3.1 1.9 3.2h9.1l2.5-3.2zm36.4 17.2-3.4 6.9h-17.8l-4.7-6.9-4.4-6.5 4-6 3.8-5.7h15.7l4.8 5.7-4.8 2.5-2.7-3.4h-9.3l-2.2 3.4-2.2 3.5 2.6 3.7 2.7 3.8h10.1l2-3.8z" fill="#fff"/><path d="m5.6 56.7c-.6.3-1.2.5-2 .5-2.3 0-3.6-1.6-3.6-4.3 0-1.9.7-3.2 1.7-3.8.6-.4 1.4-.6 2.1-.6.5 0 1.1.1 1.6.4.3.2.5.3.8.6l-1.1 1.4c-.4-.4-.9-.6-1.3-.6-1 0-1.4.8-1.4 2.8 0 1.1.1 1.7.4 2.1.2.3.6.5 1 .5.5 0 1-.2 1.5-.7l.1-.1 1 1.3c-.3.2-.5.3-.8.5zm9 .4c-.6 1.6-1 2.3-1.6 2.7s-1.3.7-2 .8l-.7-1.4c.5-.1 1-.3 1.3-.5.2-.2.4-.4.6-.7s.3-.5.5-1h-.5c-.3-.8-.7-2.1-.8-2.3l-2-5.8 2.2-.3 1.4 4.8c.1.5.4 1.7.4 1.7s.2-.9.3-1.3c.1-.3.2-.8.3-1.1l1.2-3.9h2.3zm12.3-.6c-.6.5-1.1.6-1.8.6-.8 0-1.4-.2-1.8-.8-.1.3-.1.4-.2.6h-1.9c.2-.4.2-.6.2-1.8v-7.7c0-1 0-1.6-.1-2l2.2-.5c.1.6.1.9.1 1.5v2.7c.4-.5 1-.7 1.8-.7 2 0 3.3 1.6 3.3 4.2-.2 1.8-.8 3.1-1.8 3.9zm-1-5.1c-.2-.7-.6-1.1-1.2-1.1s-1 .4-1.2.7v3.8c.3.3.6.5 1.2.5.5 0 .9-.2 1.1-.6.2-.5.2-.9.2-1.9 0-.8 0-1.1-.1-1.4zm9 2.1c0 1.3.6 2.1 1.7 2.1.7 0 1.4-.3 2.1-.8l.8 1.3c-1 .8-2 1.1-3.1 1.1-2.4 0-3.9-1.7-3.9-4.3 0-1.5.3-2.5 1-3.3s1.5-1.1 2.6-1.1c1 0 1.9.3 2.4.9.8.8 1.1 1.9 1.1 3.6v.5zm2.5-1.6c0-.6-.1-.9-.3-1.2s-.5-.5-1-.5c-.8 0-1.3.6-1.3 1.8zm10.7-1.3c-.2-.1-.4-.2-.6-.2-.5 0-.9.2-1.3.7v5.9h-2.2v-5.5c0-1.1-.1-2-.3-2.4l1.9-.5c.2.3.3.7.3 1.2.5-.6 1.1-1.2 1.9-1.2.3 0 .5 0 .8.2z"/><path d="m53.5 52.1c-.6 0-1.1-.5-1.1-1.1s.5-1.1 1.1-1.1 1.1.5 1.1 1.1-.5 1.1-1.1 1.1zm0 5.1c-.6 0-1.1-.5-1.1-1.1s.5-1.1 1.1-1.1 1.1.5 1.1 1.1-.5 1.1-1.1 1.1z" fill="#364f21"/><path d="m65 56.7c-.6.3-1.2.5-2 .5-2.3 0-3.6-1.6-3.6-4.3 0-1.9.7-3.2 1.7-3.8.6-.4 1.4-.6 2.1-.6.6 0 1.1.1 1.6.4.3.2.5.3.8.6l-1.1 1.4c-.4-.4-.9-.6-1.3-.6-1 0-1.4.8-1.4 2.8 0 1.1.1 1.7.4 2.1.2.3.6.5 1 .5.5 0 1-.2 1.5-.7l.1-.1 1 1.3c-.4.2-.6.3-.8.5zm10.5-.7c-.6.7-1.5 1.1-2.7 1.1-2.2 0-3.7-1.7-3.7-4.3s1.5-4.3 3.7-4.3c1.2 0 2.1.4 2.8 1.2s1 1.7 1 3c-.1 1.6-.4 2.5-1.1 3.3zm-1.8-5.4c-.2-.3-.5-.4-.9-.4-.5 0-.9.3-1.1.8-.1.4-.2 1-.2 1.8 0 1 .1 1.7.3 2.1.2.5.7.7 1.1.7.9 0 1.3-.8 1.3-2.8 0-1.1-.2-1.8-.5-2.2zm11.7 6.4v-5.4c0-.9-.2-1.2-.7-1.2-.4 0-1 .3-1.5.7v5.9h-2.2v-6c0-.7-.1-1.4-.3-1.9l1.9-.6c.2.3.3.7.3 1 .3-.2.6-.4 1-.6s1-.4 1.5-.4c.9 0 1.7.5 2 1.2.1.3.2.7.2 1.2v6.1z"/></svg>