<svg enable-background="new 0 0 841.9 595.3" viewBox="0 0 841.9 595.3" xmlns="http://www.w3.org/2000/svg"><g fill="#4faf4d"><path d="m246.9 345.5c0 9-11.5 18.7-25 18.7-6.2 0-9.2-2.5-13.3-11.3-10.4-22.5-14.6-30.4-22.2-32.9-3 12-5.3 26-5.6 31.5-1.3 1.8-4.1 3-8.2 3-9.4 0-15.6-9.7-15.6-16.1 0-4.4 1.1-11 8.2-31.7 4.8-14.1 10.4-30.4 16.3-49.8-13.6 1.6-26 13.6-31.5 24.6-1 .5-2.5.8-3.8.8-4.4 0-7.1-3.8-7.1-9.7 0-16.8 28.1-41.6 63.1-41.6 28.3 0 42.4 13.8 42.4 33.2 0 16.3-9.7 30.7-28.3 48 3.4 3.3 10 11.8 15.8 23.3 2 3.9 3.6 4.9 6.1 4.9 1.5 0 4.8-.5 6.7-1 1.3 1.6 2 4.1 2 6.1zm-28.7-72.5c0-8.7-5.1-15.8-19.2-16.8-.3 10.4-3.3 27.1-8.4 48.1 1.6-.3 3.5-.5 5.4-.5 3.1 0 6.2.5 8.5 1.1 10.5-14 13.7-22 13.7-31.9z"/><path d="m255.3 352.5c-9.4 0-16.3-7.7-16.3-22.7 0-24.6 20.4-50.4 36.8-50.4 2.3 0 3.5.3 4.3 1.2l.5-9.5c1.3-1.5 3.5-2.1 5.8-2.1 11.2 0 17.3 7.6 17.3 13.3 0 2.1-.5 6.2-1.8 10.8-5.8 20.7-7.9 31.1-7.9 35.3 0 3.3.7 3.8 2 3.8 3.3 0 11.8-6.2 22.3-21 3.5 0 6.1 2.1 6.1 5.1 0 10.7-27.3 37.1-39.1 37.1-7.2 0-11.8-3-11.8-13.5 0-1.8.2-3.9.5-6.4-5.4 14.9-12.9 19-18.7 19zm24-61.3c-8.2 5.3-16.1 18.9-16.1 31.5 0 6.1 2 6.7 4.3 6.7s4.6-1.6 6.6-4.1z"/><path d="m314 307c0-9.7 14.6-26.9 24.8-26.9 7.6 0 8.2 4.1 8.2 10.5 0 4.3-2.8 11.2-5.8 18.1-4.6 11.3-6.7 16.6-6.7 20.4 0 1.8.8 2.5 2.3 2.5 2.3 0 9.7-5.3 20.7-20.9 3.1 0 6.4 2.6 6.4 5.9 0 10.4-26.1 38.1-41.2 38.1-9.7 0-13-4.3-13-13.3 0-7.2 1.8-14 5.9-24.2-1.3-3.1-1.6-6.9-1.6-10.2zm30.9-70.3c6.6 0 14 7.2 14 12.3 0 3.9-3.1 10.4-11 20-6.4 0-11-4.8-11-14.3-.1-13.3 2.7-18 8-18z"/><path d="m362.8 267.7c3-22.2 14.6-35.5 27.6-35.5 7.1 0 11.5 3.3 11.5 11.7 0 7.2-3.3 15.3-15.6 38.4-4.4 15.9-12.2 44.5-12.2 48.6 0 1.8.8 2.5 2.3 2.5 5.1 0 14.8-9.4 23.3-22.7 3.1 0 6.2 2.3 6.2 5.6 0 12.5-26.6 38.3-43.2 38.3-9.5 0-13-4.1-13-12.7 0-11 5.3-30.1 6.6-37 2-10.5 5-26 6.5-37.2z"/><path d="m507.6 242.9c0 5.6-3.1 12.8-15 22.5-4.4 15.9-15.4 61.5-15.4 65.6 0 1.8.8 2.5 2.3 2.5 5.1 0 14.8-9.4 23.3-22.7 3.1 0 6.2 2.3 6.2 5.6 0 12.5-26.6 38.3-43.2 38.3-9.5 0-13-4.1-13-12.7 0-11 5.1-30.1 6.6-37 2.5-11.7 4.8-24.3 7.2-37.3.2-1 .3-2.1.7-3.3-8.5-1.3-15.9-2-18.9-2-6.1 0-9.7 4.1-10 12 9.5 0 15 2 15 6.9 0 6.2-6.7 15.6-13 15.6-3.5 0-6.9-2.5-9.7-6.1 1 2.6 2.3 5.4 3.8 8.4 6.9 14 9.9 23.7 9.9 30.7 0 17.1-12.8 26-29.1 26-12.8 0-24.8-8.7-24.8-25 0-9.7 2.6-25.6 10.7-25.6 5.8 0 10.4 7.4 10.4 11.5 0 3.5-1.5 5.9-4.3 9 1.3 7.2 6.9 12.2 10.7 12.2 1.6 0 3.5-1 3.5-3.8 0-8.4-9.9-31.5-9.9-41.7 0-6.9 3.6-12.8 12.5-16.6-.3-1.6-.5-3.4-.5-5.1 0-16.3 10.2-27.8 27.8-27.8 5.4 0 9.7 1.2 20.7 5.6 4.4-10.7 10.8-18.1 19.6-18.1 6.9.1 15.9 5.9 15.9 12.4z"/><path d="m558 298.5c0 7.9-1.6 14.3-5.1 23.3.5.5 1.6 1.1 3.3 1.1 4.8 0 9.5-3.8 15-12.5 3 0 6.4 2.5 6.4 5.9 0 6.9-11 22.3-25 22.3-3 0-4.8-.5-6.6-1.6-7.9 10.7-16.6 16.6-28.1 16.6-11.7 0-20.9-7.7-20.9-23.8 0-27.3 18.1-52.6 35.5-52.6 4.3 0 9.5 1.8 9.7 7.2 1.6-1.6 3.1-2.3 5.8-2.3 6.7.1 10 9 10 16.4zm-31.7 35.6c3.9 0 7.9-3.8 10.8-11.2-1.3-5.1-1.8-9.9-1.8-14.3 0-5.6 1.2-14.3 3.6-19.1-10.2 4.8-18.6 20.7-18.6 34.2 0 8.1 3 10.4 6 10.4z"/><path d="m585.5 354c-12.5 0-21.7-6.7-21.7-23.2 0-8.2 3.3-18.9 9.9-28.3-4.1-2-4.8-5.6-4.8-8.5.2-8.2 10.5-17.1 23.5-17.1 6.4 0 12 2.6 12 9.2 0 .7 0 1.3-.2 2-10.5 9.9-16.9 24.8-16.9 36.8 0 6.4 1.6 8.7 5.3 8.7 6.7 0 17.4-18.1 17.4-41.4 0-3-.5-9.2-1-12.7 1.5-2 4.4-3.5 8.4-3.5 10.2 0 13.8 7.4 13.8 15.6 0 35.5-24.3 62.4-45.7 62.4z"/><path d="m625.1 326.2c0-24.8 20.2-50.1 36.1-50.1 11.3 0 17.6 5.4 17.6 16.9 0 13.8-8.1 24.5-30.6 29.6 0 7.4 1.5 11.5 7.9 11.5 11.2 0 25.6-9.5 35-23.8 3.9.2 6.2 2.8 6.2 5.4 0 12.2-27.4 38.3-48.8 38.3-16 0-23.4-10-23.4-27.8zm32-32.8c-2.3 0-6.7 5.6-7.9 17.1 9.2-1.6 11.2-6.7 11.2-11.7 0-3.5-1.3-5.4-3.3-5.4z"/></g></svg>